{"title":"The Experiment DVDSCR AC3 XViD - IMAGiNE","uid":5778686,"size":1389776469,"categoryP":"video","categoryS":"movies","magnet":"?xt=urn:btih:567fb9b8263256a6045972e6f092e780fb577b54&amp;dn=+The+Experiment+DVDSCR+AC3+XViD+-+IMAGiNE&amp;tr=udp%3A%2F%2Ftracker.openbittorrent.com%3A80&amp;tr=udp%3A%2F%2Fopen.demonii.com%3A1337&amp;tr=udp%3A%2F%2Ftracker.coppersurfer.tk%3A6969&amp;tr=udp%3A%2F%2Fexodus.desync.com%3A6969","seeders":0,"leechers":0,"uploader":"johnnyrep","files":-1,"time":1282339046,"description":"Another Fine Release Brought to you from-IMAGiNE\n\n\n********************************************************************************\nThe Experiment DVDSCR AC3 XViD - IMAGiNE\n********************************************************************************\n\nRipper ...........: IMAGiNE IMDB Rating.......:7.1/10\nVideo Codec.......: XVID Release Date......:20/08/10\nAudio Codec.......:AC3 Theatre Date......:12/08/10\nAudio Bitrate.....:192 Runtime.......:1h 36mn\nSubtitles.........:NIL Language..........:ENGLISH\nResolution...... 720 x 384 IMDb URL..........:http://www.imdb.com/title/tt0997152/\n\n\nDETAILS:\n\nVideo\nID : 0\nFormat : MPEG-4 Visual\nFormat profile : Advanced Simple@L5\nFormat settings, BVOP : Yes\nFormat settings, QPel : No\nFormat settings, GMC : No warppoints\nFormat settings, Matrix : Default (MPEG)\nMuxing mode : Packed bitstream\nCodec ID : XVID\nCodec ID/Hint : XviD\nDuration : 1h 36mn\nBit rate : 1 702 Kbps\nWidth : 720 pixels\nHeight : 384 pixels\nDisplay aspect ratio : 1.875\nFrame rate : 23.976 fps\nResolution : 24 bits\nColorimetry : 4:2:0\nScan type : Progressive\nBits/(Pixel*Frame) : 0.257\nStream size : 1.14 GiB (89%)\nWriting library : XviD 1.2.1 (UTC 2008-12-04)\n\nAudio\nID : 1\nFormat : AC-3\nFormat/Info : Audio Coding 3\nCodec ID : 2000\nDuration : 1h 36mn\nBit rate mode : Constant\nBit rate : 192 Kbps\nChannel(s) : 2 channels\nChannel positions : L R\nSampling rate : 48.0 KHz\nStream size : 132 MiB (10%)\nAlignment : Aligned on interleaves\nInterleave, duration : 42 ms (1.00 video frame)\nInterleave, preload duration : 512 ms\n\n\n\nSOURCES:\n\nVIDEO:The Experiment DVDSCR VOBS .............. Transformerz,Thanks\nAUDIO:The Experiment DVDSCR VOBS .............. Transformerz,Thanks\n\nNOTES:\n\nIMAGiNE bringing you another release.....The Experiment\n\nOk source for this was good,needed a few issues sorted out,but overall a nice dvdscreener.\nFor this we did a script which contained.....crop,resize,white balance,rgb eq,sharpness and also fixed\nthe bad ivtc.\nAudio was just kept how it was on the dvdr..\n\nEnjoy folks\n\n &lt;a href=&quot;\nhttp://imagine.takagari.com/EXPERIMENT%20DVDSCR/vlcsnap-114380.png&quot; rel=&quot;nofollow&quot; target=&quot;_NEW&quot;&gt;\nhttp://imagine.takagari.com/EXPERIMENT%20DVDSCR/vlcsnap-114380.png&lt;/a&gt; &lt;a href=&quot;\nhttp://imagine.takagari.com/EXPERIMENT%20DVDSCR/vlcsnap-114564.png&quot; rel=&quot;nofollow&quot; target=&quot;_NEW&quot;&gt;\nhttp://imagine.takagari.com/EXPERIMENT%20DVDSCR/vlcsnap-114564.png&lt;/a&gt; &lt;a href=&quot;\nhttp://imagine.takagari.com/EXPERIMENT%20DVDSCR/vlcsnap-114987.png&quot; rel=&quot;nofollow&quot; target=&quot;_NEW&quot;&gt;\nhttp://imagine.takagari.com/EXPERIMENT%20DVDSCR/vlcsnap-114987.png&lt;/a&gt;","torrent":{"xt":"urn:btih:567fb9b8263256a6045972e6f092e780fb577b54","amp;dn":"+The+Experiment+DVDSCR+AC3+XViD+-+IMAGiNE","amp;tr":["udp%3A%2F%2Ftracker.openbittorrent.com%3A80","udp%3A%2F%2Fopen.demonii.com%3A1337","udp%3A%2F%2Ftracker.coppersurfer.tk%3A6969","udp%3A%2F%2Fexodus.desync.com%3A6969"],"infoHash":"567fb9b8263256a6045972e6f092e780fb577b54","infoHashBuffer":{"type":"Buffer","data":[86,127,185,184,38,50,86,166,4,89,114,230,240,146,231,128,251,87,123,84]},"announce":[],"urlList":[]}}